<svg id="Layer_1" data-name="Layer 1" xmlns="http://www.w3.org/2000/svg" viewBox="0 0 72.24 72.24"><defs><style>.cls-1{fill:#fff;}</style></defs><title>american_stripe</title><path class="cls-1" d="M72.24,300.44H0V228.2H72.24ZM33.58,260.36l-.26.28c3.84,2.36,4.23,6.42,5.22,10.22a17.27,17.27,0,0,0-.74-4.46,2.14,2.14,0,0,1,.54-2.46,15.67,15.67,0,0,1,1.73-1.63,16.37,16.37,0,0,1,1.86-1.08l-.19-.34-3.09,1.71c0-1.19,0-2.3,0-3.41s-.64-.94-1.28-.92-1.45-.24-1.41.9c0,.94,0,1.88,0,2.9ZM47.65,245c-.2.14-.29.18-.3.22a4.92,4.92,0,0,0-.08,1.07,57.1,57.1,0,0,0,1.14,7.18,36.05,36.05,0,0,1,1.21,15.74c-.73,4.49-2.76,8.56-4.75,12.61-.19.39-.34.8-.51,1.21l.32.13c.49-1,1-2,1.48-2.94a34.33,34.33,0,0,0,2.41-27.8c-.64-2-.6-4.24-.87-6.37C47.66,245.71,47.67,245.39,47.65,245ZM27.08,277.39l.33-.13c-.18-.42-.34-.85-.55-1.26-.92-1.77-1.88-3.51-2.78-5.29A13.81,13.81,0,0,1,23,260.15c.77-2.54,2.07-4.91,3-7.39a25.05,25.05,0,0,0,.81-3.12c-1.23,2.62-2.45,5.19-3.45,7.84a22.9,22.9,0,0,0-1.3,5.07C21.35,268.3,24.73,272.68,27.08,277.39Z" transform="translate(0 -228.2)"/><path d="M33.58,260.36,36,262.07c0-1,0-2,0-2.9,0-1.14.78-.88,1.41-.9s1.32-.1,1.28.92,0,2.22,0,3.41l3.09-1.71.19.34a16.37,16.37,0,0,0-1.86,1.08,15.67,15.67,0,0,0-1.73,1.63,2.14,2.14,0,0,0-.54,2.46,17.27,17.27,0,0,1,.74,4.46c-1-3.8-1.38-7.86-5.22-10.22Z" transform="translate(0 -228.2)"/><path d="M47.65,245c0,.41,0,.73.05,1.05.27,2.13.23,4.36.87,6.37a34.33,34.33,0,0,1-2.41,27.8c-.52,1-1,2-1.48,2.94l-.32-.13c.17-.41.32-.82.51-1.21,2-4.05,4-8.12,4.75-12.61a36.05,36.05,0,0,0-1.21-15.74,57.1,57.1,0,0,1-1.14-7.18,4.92,4.92,0,0,1,.08-1.07S47.45,245.12,47.65,245Z" transform="translate(0 -228.2)"/><path d="M27.08,277.39c-2.35-4.71-5.73-9.09-5-14.84a22.9,22.9,0,0,1,1.3-5.07c1-2.65,2.22-5.22,3.45-7.84a25.05,25.05,0,0,1-.81,3.12c-1,2.48-2.27,4.85-3,7.39a13.81,13.81,0,0,0,1.08,10.56c.9,1.78,1.86,3.52,2.78,5.29.21.41.37.84.55,1.26Z" transform="translate(0 -228.2)"/></svg>